The story continues where it left off from the Eden of the East TV series, and brings Morimi Saki back to the USA in order to find Takizawa Akira. The other Selecao however are actively moving to take part in the game, and a few in particular are making dangerous moves in order to eliminate Takizawa or move towards their picture of a better Japan.

General
Format : AVI
Format/Info : Audio Video Interleave
File size : 483 MiB
Duration : 1h 21mn
Overall bit rate : 828 Kbps
Writing application : MEncoder SVN-r30881(20100311-gcc4.3.3)
Writing library : MPlayer

Video
ID : 0
Format : MPEG-4 Visual
Format profile : AdvancedSimple@L5
Format settings, BVOP : Yes
Format settings, QPel : No
Format settings, GMC : No warppoints
Format settings, Matrix : Default (H.263)
Codec ID : XVID
Codec ID/Hint : XviD
Duration : 1h 21mn
Bit rate : 688 Kbps
Width : 720 pixels
Height : 576 pixels
Display aspect ratio : 5:4
Frame rate : 23.976 fps
Standard : PAL
Resolution : 24 bits
Colorimetry : 4:2:0
Scan type : Progressive
Bits/(Pixel*Frame) : 0.069
Stream size : 401 MiB (83%)
Writing library : XviD 1.2.1 (UTC 2008-12-04)

Audio
ID : 1
Format : MPEG Audio
Format version : Version 1
Format profile : Layer 3
Codec ID : 55
Codec ID/Hint : MP3
Duration : 1h 21mn
Bit rate mode : Constant
Bit rate : 128 Kbps
Channel(s) : 2 channels
Sampling rate : 44.1 KHz
Resolution : 16 bits
Video delay : 42ms
Stream size : 74.7 MiB (15%)
Alignment : Aligned on interleaves
Interleave, duration : 26 ms (0.63 video frame)
Interleave, preload duration : 522 ms